<svg height="37" viewBox="0 0 272.4 338.52" width="49.7" xmlns="http://www.w3.org/2000/svg"><g transform="translate(-.01)"><path d="m45.18 68.16 89.2 187 92.83-186.23s-85.57-36.93-182.03-.77z" fill="#fff"/><path d="m253.11 43.82s-96-55.18-233.83 0l10.5 24.63s100.5-45.33 214.17-1.31z" fill="#fff"/><path d="m258.85 36.55-8.3-3.68a297.08 297.08 0 0 0 -228.84.13l-8.16 3.62a6 6 0 0 0 -3.09 7.74l12.73 30.64a6 6 0 0 0 7.87 3.18l.13-.06 7.26-3.39a7.5 7.5 0 0 0 .76-.33l.27-.11 91.33 187a6 6 0 0 0 10.72 0l91.31-187h.08a6.11 6.11 0 0 0 1 .44l7.22 3.36a6 6 0 0 0 7.94-3l.06-.13 12.74-30.66a6 6 0 0 0 -3.03-7.75zm-122.64 208.5-85.52-175.05.23-.08c.51-.19 1-.36 1.56-.52s1.29-.41 1.79-.59l2.27-.81c2-.7 4.1-1.39 6.19-2 3.31-1 6.73-1.93 9.65-2.69l1.09-.31 1.2-.32a252 252 0 0 1 135.08 3.32l.35.1.89.29c3.79 1.16 7.27 2.3 10.61 3.49h.11zm104.36-180.42-2.13-1-.18-.08-.48-.2c-3.91-1.62-8-3.2-12.17-4.7-3.54-1.26-7.18-2.46-11.36-3.74-.4-.14-.79-.26-1.2-.37a263.89 263.89 0 0 0 -141.28-3.42l-1.5.4-.89.24c-3 .79-6.63 1.74-10.12 2.82-2.18.65-4.37 1.39-6.55 2.14l-2.36.8-1.48.48c-.72.23-1.43.46-2 .69-4.53 1.62-8.55 3.18-12.31 4.76a5.42 5.42 0 0 0 -.54.22l-2.15 1-8.16-19.54 2.7-1.2a285.08 285.08 0 0 1 219.43-.1l2.84 1.26z" fill="#e31837"/><path d="m135.65 88.69a32.28 32.28 0 1 0 32.28 32.31 32.28 32.28 0 0 0 -32.28-32.31z" fill="#e31837"/><path d="m219.07 77.53a23.22 23.22 0 1 0 -22.57 40.59q.86.48 1.76.88z" fill="#e31837"/><path d="m101.59 177a23.5 23.5 0 1 1 22 41.54l-.92.46z" fill="#e31837"/><path d="m136.3 10a298.3 298.3 0 0 1 114.24 22.87l8.3 3.68a6 6 0 0 1 3.09 7.74l-12.73 30.71a6 6 0 0 1 -7.87 3.18l-.13-.06-7.2-3.41a6.11 6.11 0 0 1 -1-.44h-.08l-91.31 187a6 6 0 0 1 -10.72 0l-91.33-187-.27.11a7.51 7.51 0 0 1 -.76.33l-7.26 3.39a6 6 0 0 1 -7.94-3l-.06-.1-12.81-30.68a6 6 0 0 1 3.09-7.74l8.16-3.58a299 299 0 0 1 114.59-23m0-10a308.05 308.05 0 0 0 -118.41 23.73h-.22l-8.17 3.71a16 16 0 0 0 -8.28 20.71l12.78 30.69a16 16 0 0 0 20.87 8.62l87 178.19a16 16 0 0 0 28.69 0l87-178.24a16 16 0 0 0 20.86-8.61l12.74-30.67a15.88 15.88 0 0 0 -8.27-20.72l-8.3-3.68h-.11-.12a307.32 307.32 0 0 0 -118.06-23.73z" fill="#e31837"/></g><circle cx="136.9" cy="314.12" fill="#e31837" r="24.4"/></svg>